<?xml version="1.0" encoding="UTF-8" standalone="no"?>
<!DOCTYPE svg PUBLIC "-//W3C//DTD SVG 1.1//EN"
 "http://www.w3.org/Graphics/SVG/1.1/DTD/svg11.dtd">
<!-- Generated by graphviz version 2.47.0 (20210316.0004)
 -->
<!-- Title: dependencies Pages: 1 -->
<svg width="504pt" height="284pt"
 viewBox="0.00 0.00 504.00 284.00" xmlns="http://www.w3.org/2000/svg" xmlns:xlink="http://www.w3.org/1999/xlink">
<g id="graph0" class="graph" transform="scale(1 1) rotate(0) translate(4 280)">
<title>dependencies</title>
<polygon fill="white" stroke="transparent" points="-4,4 -4,-280 500,-280 500,4 -4,4"/>
<text text-anchor="start" x="227.01" y="-42.4" font-family="Times-12" font-weight="bold" font-size="14.00">Legend</text>
<polygon fill="#ffffb3" stroke="transparent" points="14,-10 14,-30 34,-30 34,-10 14,-10"/>
<text text-anchor="start" x="37.63" y="-15.4" font-family="Times-12" font-size="14.00"> &#160;Declarations</text>
<polygon fill="#8dd3c7" stroke="transparent" points="127,-10 127,-30 147,-30 147,-10 127,-10"/>
<text text-anchor="start" x="150.73" y="-15.4" font-family="Times-12" font-size="14.00"> &#160;Module</text>
<polygon fill="#80b1d3" stroke="transparent" points="213,-10 213,-30 233,-30 233,-10 213,-10"/>
<text text-anchor="start" x="236.78" y="-15.4" font-family="Times-12" font-size="14.00"> &#160;Bootstrap</text>
<polygon fill="#fdb462" stroke="transparent" points="310,-10 310,-30 330,-30 330,-10 310,-10"/>
<text text-anchor="start" x="333.67" y="-15.4" font-family="Times-12" font-size="14.00"> &#160;Providers</text>
<polygon fill="#fb8072" stroke="transparent" points="406,-10 406,-30 426,-30 426,-10 406,-10"/>
<text text-anchor="start" x="429.73" y="-15.4" font-family="Times-12" font-size="14.00"> &#160;Exports</text>
<g id="clust1" class="cluster">
<title>cluster_ZtPaginatorModule</title>
<polygon fill="none" stroke="black" stroke-dasharray="1,5" points="67,-70 67,-268 429,-268 429,-70 67,-70"/>
</g>
<g id="clust6" class="cluster">
<title>cluster_ZtPaginatorModule_exports</title>
<polygon fill="none" stroke="black" points="75,-208 75,-260 421,-260 421,-208 75,-208"/>
</g>
<g id="clust2" class="cluster">
<title>cluster_ZtPaginatorModule_declarations</title>
<polygon fill="none" stroke="black" points="79,-78 79,-130 418,-130 418,-78 79,-78"/>
</g>
<!-- ZtPaginatorComponent -->
<g id="node1" class="node">
<title>ZtPaginatorComponent</title>
<polygon fill="#ffffb3" stroke="black" points="409.93,-122 262.07,-122 262.07,-86 409.93,-86 409.93,-122"/>
<text text-anchor="middle" x="336" y="-99.8" font-family="Times,serif" font-size="14.00">ZtPaginatorComponent</text>
</g>
<!-- ZtPaginatorModule -->
<g id="node3" class="node">
<title>ZtPaginatorModule</title>
<polygon fill="#8dd3c7" stroke="black" points="229.65,-187 226.65,-191 205.65,-191 202.65,-187 104.35,-187 104.35,-151 229.65,-151 229.65,-187"/>
<text text-anchor="middle" x="167" y="-164.8" font-family="Times,serif" font-size="14.00">ZtPaginatorModule</text>
</g>
<!-- ZtPaginatorComponent&#45;&gt;ZtPaginatorModule -->
<g id="edge1" class="edge">
<title>ZtPaginatorComponent&#45;&gt;ZtPaginatorModule</title>
<path fill="none" stroke="black" d="M360.65,-122.02C360.65,-139.37 360.65,-163 360.65,-163 360.65,-163 239.87,-163 239.87,-163"/>
<polygon fill="black" stroke="black" points="239.87,-159.5 229.87,-163 239.87,-166.5 239.87,-159.5"/>
</g>
<!-- ZtPaginatorXComponent -->
<g id="node2" class="node">
<title>ZtPaginatorXComponent</title>
<polygon fill="#ffffb3" stroke="black" points="244.54,-122 87.46,-122 87.46,-86 244.54,-86 244.54,-122"/>
<text text-anchor="middle" x="166" y="-99.8" font-family="Times,serif" font-size="14.00">ZtPaginatorXComponent</text>
</g>
<!-- ZtPaginatorXComponent&#45;&gt;ZtPaginatorModule -->
<g id="edge2" class="edge">
<title>ZtPaginatorXComponent&#45;&gt;ZtPaginatorModule</title>
<path fill="none" stroke="black" d="M167,-122.11C167,-122.11 167,-140.99 167,-140.99"/>
<polygon fill="black" stroke="black" points="163.5,-140.99 167,-150.99 170.5,-140.99 163.5,-140.99"/>
</g>
<!-- ZtPaginatorComponent  -->
<g id="node4" class="node">
<title>ZtPaginatorComponent </title>
<polygon fill="#fb8072" stroke="black" points="413.43,-252 262.57,-252 262.57,-216 413.43,-216 413.43,-252"/>
<text text-anchor="middle" x="338" y="-229.8" font-family="Times,serif" font-size="14.00">ZtPaginatorComponent </text>
</g>
<!-- ZtPaginatorModule&#45;&gt;ZtPaginatorComponent  -->
<g id="edge3" class="edge">
<title>ZtPaginatorModule&#45;&gt;ZtPaginatorComponent </title>
<path fill="none" stroke="black" stroke-dasharray="5,2" d="M230,-175C268.97,-175 311.6,-175 311.6,-175 311.6,-175 311.6,-205.98 311.6,-205.98"/>
<polygon fill="black" stroke="black" points="308.1,-205.98 311.6,-215.98 315.1,-205.98 308.1,-205.98"/>
</g>
<!-- ZtPaginatorXComponent  -->
<g id="node5" class="node">
<title>ZtPaginatorXComponent </title>
<polygon fill="#fb8072" stroke="black" points="244.54,-252 83.46,-252 83.46,-216 244.54,-216 244.54,-252"/>
<text text-anchor="middle" x="164" y="-229.8" font-family="Times,serif" font-size="14.00">ZtPaginatorXComponent </text>
</g>
<!-- ZtPaginatorModule&#45;&gt;ZtPaginatorXComponent  -->
<g id="edge4" class="edge">
<title>ZtPaginatorModule&#45;&gt;ZtPaginatorXComponent </title>
<path fill="none" stroke="black" stroke-dasharray="5,2" d="M167,-187.11C167,-187.11 167,-205.99 167,-205.99"/>
<polygon fill="black" stroke="black" points="163.5,-205.99 167,-215.99 170.5,-205.99 163.5,-205.99"/>
</g>
</g>
</svg>
