<?xml version="1.0" encoding="UTF-8" standalone="no"?>
<!DOCTYPE svg PUBLIC "-//W3C//DTD SVG 1.1//EN"
 "http://www.w3.org/Graphics/SVG/1.1/DTD/svg11.dtd">
<!-- Generated by graphviz version 2.47.0 (20210316.0004)
 -->
<!-- Title: dependencies Pages: 1 -->
<svg width="1558pt" height="284pt"
 viewBox="0.00 0.00 1558.00 284.00" xmlns="http://www.w3.org/2000/svg" xmlns:xlink="http://www.w3.org/1999/xlink">
<g id="graph0" class="graph" transform="scale(1 1) rotate(0) translate(4 280)">
<title>dependencies</title>
<polygon fill="white" stroke="transparent" points="-4,4 -4,-280 1554,-280 1554,4 -4,4"/>
<text text-anchor="start" x="754.01" y="-42.4" font-family="Times-12" font-weight="bold" font-size="14.00">Legend</text>
<polygon fill="#ffffb3" stroke="transparent" points="541,-10 541,-30 561,-30 561,-10 541,-10"/>
<text text-anchor="start" x="564.63" y="-15.4" font-family="Times-12" font-size="14.00"> &#160;Declarations</text>
<polygon fill="#8dd3c7" stroke="transparent" points="654,-10 654,-30 674,-30 674,-10 654,-10"/>
<text text-anchor="start" x="677.73" y="-15.4" font-family="Times-12" font-size="14.00"> &#160;Module</text>
<polygon fill="#80b1d3" stroke="transparent" points="740,-10 740,-30 760,-30 760,-10 740,-10"/>
<text text-anchor="start" x="763.78" y="-15.4" font-family="Times-12" font-size="14.00"> &#160;Bootstrap</text>
<polygon fill="#fdb462" stroke="transparent" points="837,-10 837,-30 857,-30 857,-10 837,-10"/>
<text text-anchor="start" x="860.67" y="-15.4" font-family="Times-12" font-size="14.00"> &#160;Providers</text>
<polygon fill="#fb8072" stroke="transparent" points="933,-10 933,-30 953,-30 953,-10 933,-10"/>
<text text-anchor="start" x="956.73" y="-15.4" font-family="Times-12" font-size="14.00"> &#160;Exports</text>
<g id="clust1" class="cluster">
<title>cluster_ZtCardModule</title>
<polygon fill="none" stroke="black" stroke-dasharray="1,5" points="8,-70 8,-268 152,-268 152,-70 8,-70"/>
</g>
<g id="clust3" class="cluster">
<title>cluster_ZtCardModule_imports</title>
<polygon fill="none" stroke="black" points="18,-78 18,-130 142,-130 142,-78 18,-78"/>
</g>
<g id="clust4" class="cluster">
<title>cluster_ZtCardModule_exports</title>
<polygon fill="none" stroke="black" points="16,-208 16,-260 144,-260 144,-208 16,-208"/>
</g>
<g id="clust7" class="cluster">
<title>cluster_ZtDataGridModule</title>
<polygon fill="none" stroke="black" stroke-dasharray="1,5" points="160,-70 160,-268 342,-268 342,-70 160,-70"/>
</g>
<g id="clust9" class="cluster">
<title>cluster_ZtDataGridModule_imports</title>
<polygon fill="none" stroke="black" points="170,-78 170,-130 332,-130 332,-78 170,-78"/>
</g>
<g id="clust10" class="cluster">
<title>cluster_ZtDataGridModule_exports</title>
<polygon fill="none" stroke="black" points="168,-208 168,-260 334,-260 334,-208 168,-208"/>
</g>
<g id="clust13" class="cluster">
<title>cluster_ZtInputModule</title>
<polygon fill="none" stroke="black" stroke-dasharray="1,5" points="350,-70 350,-268 496,-268 496,-70 350,-70"/>
</g>
<g id="clust15" class="cluster">
<title>cluster_ZtInputModule_imports</title>
<polygon fill="none" stroke="black" points="360,-78 360,-130 486,-130 486,-78 360,-78"/>
</g>
<g id="clust16" class="cluster">
<title>cluster_ZtInputModule_exports</title>
<polygon fill="none" stroke="black" points="358,-208 358,-260 488,-260 488,-208 358,-208"/>
</g>
<g id="clust19" class="cluster">
<title>cluster_ZtModalModule</title>
<polygon fill="none" stroke="black" stroke-dasharray="1,5" points="504,-70 504,-268 670,-268 670,-70 504,-70"/>
</g>
<g id="clust21" class="cluster">
<title>cluster_ZtModalModule_imports</title>
<polygon fill="none" stroke="black" points="514,-78 514,-130 660,-130 660,-78 514,-78"/>
</g>
<g id="clust22" class="cluster">
<title>cluster_ZtModalModule_exports</title>
<polygon fill="none" stroke="black" points="512,-208 512,-260 662,-260 662,-208 512,-208"/>
</g>
<g id="clust25" class="cluster">
<title>cluster_ZtPaginatorModule</title>
<polygon fill="none" stroke="black" stroke-dasharray="1,5" points="678,-70 678,-268 1040,-268 1040,-70 678,-70"/>
</g>
<g id="clust26" class="cluster">
<title>cluster_ZtPaginatorModule_declarations</title>
<polygon fill="none" stroke="black" points="690,-78 690,-130 1029,-130 1029,-78 690,-78"/>
</g>
<g id="clust30" class="cluster">
<title>cluster_ZtPaginatorModule_exports</title>
<polygon fill="none" stroke="black" points="686,-208 686,-260 1032,-260 1032,-208 686,-208"/>
</g>
<g id="clust33" class="cluster">
<title>cluster_ZtSelectModule</title>
<polygon fill="none" stroke="black" stroke-dasharray="1,5" points="1048,-70 1048,-268 1200,-268 1200,-70 1048,-70"/>
</g>
<g id="clust35" class="cluster">
<title>cluster_ZtSelectModule_imports</title>
<polygon fill="none" stroke="black" points="1058,-78 1058,-130 1190,-130 1190,-78 1058,-78"/>
</g>
<g id="clust36" class="cluster">
<title>cluster_ZtSelectModule_exports</title>
<polygon fill="none" stroke="black" points="1056,-208 1056,-260 1192,-260 1192,-208 1056,-208"/>
</g>
<g id="clust39" class="cluster">
<title>cluster_ZtTextareaModule</title>
<polygon fill="none" stroke="black" stroke-dasharray="1,5" points="1208,-70 1208,-268 1374,-268 1374,-70 1208,-70"/>
</g>
<g id="clust40" class="cluster">
<title>cluster_ZtTextareaModule_declarations</title>
<polygon fill="none" stroke="black" points="1218,-78 1218,-130 1364,-130 1364,-78 1218,-78"/>
</g>
<g id="clust43" class="cluster">
<title>cluster_ZtTextareaModule_exports</title>
<polygon fill="none" stroke="black" points="1216,-208 1216,-260 1366,-260 1366,-208 1216,-208"/>
</g>
<g id="clust46" class="cluster">
<title>cluster_ZtToastModule</title>
<polygon fill="none" stroke="black" stroke-dasharray="1,5" points="1382,-70 1382,-268 1542,-268 1542,-70 1382,-70"/>
</g>
<g id="clust48" class="cluster">
<title>cluster_ZtToastModule_imports</title>
<polygon fill="none" stroke="black" points="1392,-78 1392,-130 1532,-130 1532,-78 1392,-78"/>
</g>
<g id="clust49" class="cluster">
<title>cluster_ZtToastModule_exports</title>
<polygon fill="none" stroke="black" points="1390,-208 1390,-260 1534,-260 1534,-208 1390,-208"/>
</g>
<!-- CardComponent -->
<g id="node1" class="node">
<title>CardComponent</title>
<polygon fill="#8dd3c7" stroke="black" points="134.05,-122 131.05,-126 110.05,-126 107.05,-122 25.95,-122 25.95,-86 134.05,-86 134.05,-122"/>
<text text-anchor="middle" x="80" y="-99.8" font-family="Times,serif" font-size="14.00">CardComponent</text>
</g>
<!-- ZtCardModule -->
<g id="node2" class="node">
<title>ZtCardModule</title>
<polygon fill="#8dd3c7" stroke="black" points="129.71,-187 126.71,-191 105.71,-191 102.71,-187 30.29,-187 30.29,-151 129.71,-151 129.71,-187"/>
<text text-anchor="middle" x="80" y="-164.8" font-family="Times,serif" font-size="14.00">ZtCardModule</text>
</g>
<!-- CardComponent&#45;&gt;ZtCardModule -->
<g id="edge1" class="edge">
<title>CardComponent&#45;&gt;ZtCardModule</title>
<path fill="none" stroke="black" d="M80,-122.11C80,-122.11 80,-140.99 80,-140.99"/>
<polygon fill="black" stroke="black" points="76.5,-140.99 80,-150.99 83.5,-140.99 76.5,-140.99"/>
</g>
<!-- CardComponent  -->
<g id="node3" class="node">
<title>CardComponent </title>
<polygon fill="#fb8072" stroke="black" points="136.04,-252 23.96,-252 23.96,-216 136.04,-216 136.04,-252"/>
<text text-anchor="middle" x="80" y="-229.8" font-family="Times,serif" font-size="14.00">CardComponent </text>
</g>
<!-- ZtCardModule&#45;&gt;CardComponent  -->
<g id="edge2" class="edge">
<title>ZtCardModule&#45;&gt;CardComponent </title>
<path fill="none" stroke="black" stroke-dasharray="5,2" d="M80,-187.11C80,-187.11 80,-205.99 80,-205.99"/>
<polygon fill="black" stroke="black" points="76.5,-205.99 80,-215.99 83.5,-205.99 76.5,-205.99"/>
</g>
<!-- ZtDataGridComponent -->
<g id="node4" class="node">
<title>ZtDataGridComponent</title>
<polygon fill="#8dd3c7" stroke="black" points="323.86,-122 320.86,-126 299.86,-126 296.86,-122 178.14,-122 178.14,-86 323.86,-86 323.86,-122"/>
<text text-anchor="middle" x="251" y="-99.8" font-family="Times,serif" font-size="14.00">ZtDataGridComponent</text>
</g>
<!-- ZtDataGridModule -->
<g id="node5" class="node">
<title>ZtDataGridModule</title>
<polygon fill="#8dd3c7" stroke="black" points="313.08,-187 310.08,-191 289.08,-191 286.08,-187 188.92,-187 188.92,-151 313.08,-151 313.08,-187"/>
<text text-anchor="middle" x="251" y="-164.8" font-family="Times,serif" font-size="14.00">ZtDataGridModule</text>
</g>
<!-- ZtDataGridComponent&#45;&gt;ZtDataGridModule -->
<g id="edge3" class="edge">
<title>ZtDataGridComponent&#45;&gt;ZtDataGridModule</title>
<path fill="none" stroke="black" d="M251,-122.11C251,-122.11 251,-140.99 251,-140.99"/>
<polygon fill="black" stroke="black" points="247.5,-140.99 251,-150.99 254.5,-140.99 247.5,-140.99"/>
</g>
<!-- ZtDataGridComponent  -->
<g id="node6" class="node">
<title>ZtDataGridComponent </title>
<polygon fill="#fb8072" stroke="black" points="325.86,-252 176.14,-252 176.14,-216 325.86,-216 325.86,-252"/>
<text text-anchor="middle" x="251" y="-229.8" font-family="Times,serif" font-size="14.00">ZtDataGridComponent </text>
</g>
<!-- ZtDataGridModule&#45;&gt;ZtDataGridComponent  -->
<g id="edge4" class="edge">
<title>ZtDataGridModule&#45;&gt;ZtDataGridComponent </title>
<path fill="none" stroke="black" stroke-dasharray="5,2" d="M251,-187.11C251,-187.11 251,-205.99 251,-205.99"/>
<polygon fill="black" stroke="black" points="247.5,-205.99 251,-215.99 254.5,-205.99 247.5,-205.99"/>
</g>
<!-- InputComponent -->
<g id="node7" class="node">
<title>InputComponent</title>
<polygon fill="#8dd3c7" stroke="black" points="478.38,-122 475.38,-126 454.38,-126 451.38,-122 367.62,-122 367.62,-86 478.38,-86 478.38,-122"/>
<text text-anchor="middle" x="423" y="-99.8" font-family="Times,serif" font-size="14.00">InputComponent</text>
</g>
<!-- ZtInputModule -->
<g id="node8" class="node">
<title>ZtInputModule</title>
<polygon fill="#8dd3c7" stroke="black" points="473.55,-187 470.55,-191 449.55,-191 446.55,-187 372.45,-187 372.45,-151 473.55,-151 473.55,-187"/>
<text text-anchor="middle" x="423" y="-164.8" font-family="Times,serif" font-size="14.00">ZtInputModule</text>
</g>
<!-- InputComponent&#45;&gt;ZtInputModule -->
<g id="edge5" class="edge">
<title>InputComponent&#45;&gt;ZtInputModule</title>
<path fill="none" stroke="black" d="M423,-122.11C423,-122.11 423,-140.99 423,-140.99"/>
<polygon fill="black" stroke="black" points="419.5,-140.99 423,-150.99 426.5,-140.99 419.5,-140.99"/>
</g>
<!-- InputComponent  -->
<g id="node9" class="node">
<title>InputComponent </title>
<polygon fill="#fb8072" stroke="black" points="480.38,-252 365.62,-252 365.62,-216 480.38,-216 480.38,-252"/>
<text text-anchor="middle" x="423" y="-229.8" font-family="Times,serif" font-size="14.00">InputComponent </text>
</g>
<!-- ZtInputModule&#45;&gt;InputComponent  -->
<g id="edge6" class="edge">
<title>ZtInputModule&#45;&gt;InputComponent </title>
<path fill="none" stroke="black" stroke-dasharray="5,2" d="M423,-187.11C423,-187.11 423,-205.99 423,-205.99"/>
<polygon fill="black" stroke="black" points="419.5,-205.99 423,-215.99 426.5,-205.99 419.5,-205.99"/>
</g>
<!-- ZtModalComponent -->
<g id="node10" class="node">
<title>ZtModalComponent</title>
<polygon fill="#8dd3c7" stroke="black" points="652.33,-122 649.33,-126 628.33,-126 625.33,-122 521.67,-122 521.67,-86 652.33,-86 652.33,-122"/>
<text text-anchor="middle" x="587" y="-99.8" font-family="Times,serif" font-size="14.00">ZtModalComponent</text>
</g>
<!-- ZtModalModule -->
<g id="node11" class="node">
<title>ZtModalModule</title>
<polygon fill="#8dd3c7" stroke="black" points="641.04,-187 638.04,-191 617.04,-191 614.04,-187 532.96,-187 532.96,-151 641.04,-151 641.04,-187"/>
<text text-anchor="middle" x="587" y="-164.8" font-family="Times,serif" font-size="14.00">ZtModalModule</text>
</g>
<!-- ZtModalComponent&#45;&gt;ZtModalModule -->
<g id="edge7" class="edge">
<title>ZtModalComponent&#45;&gt;ZtModalModule</title>
<path fill="none" stroke="black" d="M587,-122.11C587,-122.11 587,-140.99 587,-140.99"/>
<polygon fill="black" stroke="black" points="583.5,-140.99 587,-150.99 590.5,-140.99 583.5,-140.99"/>
</g>
<!-- ZtModalComponent  -->
<g id="node12" class="node">
<title>ZtModalComponent </title>
<polygon fill="#fb8072" stroke="black" points="653.83,-252 520.17,-252 520.17,-216 653.83,-216 653.83,-252"/>
<text text-anchor="middle" x="587" y="-229.8" font-family="Times,serif" font-size="14.00">ZtModalComponent </text>
</g>
<!-- ZtModalModule&#45;&gt;ZtModalComponent  -->
<g id="edge8" class="edge">
<title>ZtModalModule&#45;&gt;ZtModalComponent </title>
<path fill="none" stroke="black" stroke-dasharray="5,2" d="M587,-187.11C587,-187.11 587,-205.99 587,-205.99"/>
<polygon fill="black" stroke="black" points="583.5,-205.99 587,-215.99 590.5,-205.99 583.5,-205.99"/>
</g>
<!-- ZtPaginatorComponent -->
<g id="node13" class="node">
<title>ZtPaginatorComponent</title>
<polygon fill="#ffffb3" stroke="black" points="1020.93,-122 873.07,-122 873.07,-86 1020.93,-86 1020.93,-122"/>
<text text-anchor="middle" x="947" y="-99.8" font-family="Times,serif" font-size="14.00">ZtPaginatorComponent</text>
</g>
<!-- ZtPaginatorModule -->
<g id="node15" class="node">
<title>ZtPaginatorModule</title>
<polygon fill="#8dd3c7" stroke="black" points="840.65,-187 837.65,-191 816.65,-191 813.65,-187 715.35,-187 715.35,-151 840.65,-151 840.65,-187"/>
<text text-anchor="middle" x="778" y="-164.8" font-family="Times,serif" font-size="14.00">ZtPaginatorModule</text>
</g>
<!-- ZtPaginatorComponent&#45;&gt;ZtPaginatorModule -->
<g id="edge9" class="edge">
<title>ZtPaginatorComponent&#45;&gt;ZtPaginatorModule</title>
<path fill="none" stroke="black" d="M971.65,-122.02C971.65,-139.37 971.65,-163 971.65,-163 971.65,-163 850.87,-163 850.87,-163"/>
<polygon fill="black" stroke="black" points="850.87,-159.5 840.87,-163 850.87,-166.5 850.87,-159.5"/>
</g>
<!-- ZtPaginatorXComponent -->
<g id="node14" class="node">
<title>ZtPaginatorXComponent</title>
<polygon fill="#ffffb3" stroke="black" points="855.54,-122 698.46,-122 698.46,-86 855.54,-86 855.54,-122"/>
<text text-anchor="middle" x="777" y="-99.8" font-family="Times,serif" font-size="14.00">ZtPaginatorXComponent</text>
</g>
<!-- ZtPaginatorXComponent&#45;&gt;ZtPaginatorModule -->
<g id="edge10" class="edge">
<title>ZtPaginatorXComponent&#45;&gt;ZtPaginatorModule</title>
<path fill="none" stroke="black" d="M778,-122.11C778,-122.11 778,-140.99 778,-140.99"/>
<polygon fill="black" stroke="black" points="774.5,-140.99 778,-150.99 781.5,-140.99 774.5,-140.99"/>
</g>
<!-- ZtPaginatorComponent  -->
<g id="node16" class="node">
<title>ZtPaginatorComponent </title>
<polygon fill="#fb8072" stroke="black" points="1024.43,-252 873.57,-252 873.57,-216 1024.43,-216 1024.43,-252"/>
<text text-anchor="middle" x="949" y="-229.8" font-family="Times,serif" font-size="14.00">ZtPaginatorComponent </text>
</g>
<!-- ZtPaginatorModule&#45;&gt;ZtPaginatorComponent  -->
<g id="edge11" class="edge">
<title>ZtPaginatorModule&#45;&gt;ZtPaginatorComponent </title>
<path fill="none" stroke="black" stroke-dasharray="5,2" d="M841,-175C879.97,-175 922.6,-175 922.6,-175 922.6,-175 922.6,-205.98 922.6,-205.98"/>
<polygon fill="black" stroke="black" points="919.1,-205.98 922.6,-215.98 926.1,-205.98 919.1,-205.98"/>
</g>
<!-- ZtPaginatorXComponent  -->
<g id="node17" class="node">
<title>ZtPaginatorXComponent </title>
<polygon fill="#fb8072" stroke="black" points="855.54,-252 694.46,-252 694.46,-216 855.54,-216 855.54,-252"/>
<text text-anchor="middle" x="775" y="-229.8" font-family="Times,serif" font-size="14.00">ZtPaginatorXComponent </text>
</g>
<!-- ZtPaginatorModule&#45;&gt;ZtPaginatorXComponent  -->
<g id="edge12" class="edge">
<title>ZtPaginatorModule&#45;&gt;ZtPaginatorXComponent </title>
<path fill="none" stroke="black" stroke-dasharray="5,2" d="M778,-187.11C778,-187.11 778,-205.99 778,-205.99"/>
<polygon fill="black" stroke="black" points="774.5,-205.99 778,-215.99 781.5,-205.99 774.5,-205.99"/>
</g>
<!-- SelectComponent -->
<g id="node18" class="node">
<title>SelectComponent</title>
<polygon fill="#8dd3c7" stroke="black" points="1181.54,-122 1178.54,-126 1157.54,-126 1154.54,-122 1066.46,-122 1066.46,-86 1181.54,-86 1181.54,-122"/>
<text text-anchor="middle" x="1124" y="-99.8" font-family="Times,serif" font-size="14.00">SelectComponent</text>
</g>
<!-- ZtSelectModule -->
<g id="node19" class="node">
<title>ZtSelectModule</title>
<polygon fill="#8dd3c7" stroke="black" points="1177.2,-187 1174.2,-191 1153.2,-191 1150.2,-187 1070.8,-187 1070.8,-151 1177.2,-151 1177.2,-187"/>
<text text-anchor="middle" x="1124" y="-164.8" font-family="Times,serif" font-size="14.00">ZtSelectModule</text>
</g>
<!-- SelectComponent&#45;&gt;ZtSelectModule -->
<g id="edge13" class="edge">
<title>SelectComponent&#45;&gt;ZtSelectModule</title>
<path fill="none" stroke="black" d="M1124,-122.11C1124,-122.11 1124,-140.99 1124,-140.99"/>
<polygon fill="black" stroke="black" points="1120.5,-140.99 1124,-150.99 1127.5,-140.99 1120.5,-140.99"/>
</g>
<!-- SelectComponent  -->
<g id="node20" class="node">
<title>SelectComponent </title>
<polygon fill="#fb8072" stroke="black" points="1183.54,-252 1064.46,-252 1064.46,-216 1183.54,-216 1183.54,-252"/>
<text text-anchor="middle" x="1124" y="-229.8" font-family="Times,serif" font-size="14.00">SelectComponent </text>
</g>
<!-- ZtSelectModule&#45;&gt;SelectComponent  -->
<g id="edge14" class="edge">
<title>ZtSelectModule&#45;&gt;SelectComponent </title>
<path fill="none" stroke="black" stroke-dasharray="5,2" d="M1124,-187.11C1124,-187.11 1124,-205.99 1124,-205.99"/>
<polygon fill="black" stroke="black" points="1120.5,-205.99 1124,-215.99 1127.5,-205.99 1120.5,-205.99"/>
</g>
<!-- TextareaComponent -->
<g id="node21" class="node">
<title>TextareaComponent</title>
<polygon fill="#ffffb3" stroke="black" points="1356.29,-122 1225.71,-122 1225.71,-86 1356.29,-86 1356.29,-122"/>
<text text-anchor="middle" x="1291" y="-99.8" font-family="Times,serif" font-size="14.00">TextareaComponent</text>
</g>
<!-- ZtTextareaModule -->
<g id="node22" class="node">
<title>ZtTextareaModule</title>
<polygon fill="#8dd3c7" stroke="black" points="1351.46,-187 1348.46,-191 1327.46,-191 1324.46,-187 1230.54,-187 1230.54,-151 1351.46,-151 1351.46,-187"/>
<text text-anchor="middle" x="1291" y="-164.8" font-family="Times,serif" font-size="14.00">ZtTextareaModule</text>
</g>
<!-- TextareaComponent&#45;&gt;ZtTextareaModule -->
<g id="edge15" class="edge">
<title>TextareaComponent&#45;&gt;ZtTextareaModule</title>
<path fill="none" stroke="black" d="M1291,-122.11C1291,-122.11 1291,-140.99 1291,-140.99"/>
<polygon fill="black" stroke="black" points="1287.5,-140.99 1291,-150.99 1294.5,-140.99 1287.5,-140.99"/>
</g>
<!-- TextareaComponent  -->
<g id="node23" class="node">
<title>TextareaComponent </title>
<polygon fill="#fb8072" stroke="black" points="1357.79,-252 1224.21,-252 1224.21,-216 1357.79,-216 1357.79,-252"/>
<text text-anchor="middle" x="1291" y="-229.8" font-family="Times,serif" font-size="14.00">TextareaComponent </text>
</g>
<!-- ZtTextareaModule&#45;&gt;TextareaComponent  -->
<g id="edge16" class="edge">
<title>ZtTextareaModule&#45;&gt;TextareaComponent </title>
<path fill="none" stroke="black" stroke-dasharray="5,2" d="M1291,-187.11C1291,-187.11 1291,-205.99 1291,-205.99"/>
<polygon fill="black" stroke="black" points="1287.5,-205.99 1291,-215.99 1294.5,-205.99 1287.5,-205.99"/>
</g>
<!-- ZtToastComponent -->
<g id="node24" class="node">
<title>ZtToastComponent</title>
<polygon fill="#8dd3c7" stroke="black" points="1524.38,-122 1521.38,-126 1500.38,-126 1497.38,-122 1399.62,-122 1399.62,-86 1524.38,-86 1524.38,-122"/>
<text text-anchor="middle" x="1462" y="-99.8" font-family="Times,serif" font-size="14.00">ZtToastComponent</text>
</g>
<!-- ZtToastModule -->
<g id="node25" class="node">
<title>ZtToastModule</title>
<polygon fill="#8dd3c7" stroke="black" points="1513.6,-187 1510.6,-191 1489.6,-191 1486.6,-187 1410.4,-187 1410.4,-151 1513.6,-151 1513.6,-187"/>
<text text-anchor="middle" x="1462" y="-164.8" font-family="Times,serif" font-size="14.00">ZtToastModule</text>
</g>
<!-- ZtToastComponent&#45;&gt;ZtToastModule -->
<g id="edge17" class="edge">
<title>ZtToastComponent&#45;&gt;ZtToastModule</title>
<path fill="none" stroke="black" d="M1462,-122.11C1462,-122.11 1462,-140.99 1462,-140.99"/>
<polygon fill="black" stroke="black" points="1458.5,-140.99 1462,-150.99 1465.5,-140.99 1458.5,-140.99"/>
</g>
<!-- ZtToastComponent  -->
<g id="node26" class="node">
<title>ZtToastComponent </title>
<polygon fill="#fb8072" stroke="black" points="1526.38,-252 1397.62,-252 1397.62,-216 1526.38,-216 1526.38,-252"/>
<text text-anchor="middle" x="1462" y="-229.8" font-family="Times,serif" font-size="14.00">ZtToastComponent </text>
</g>
<!-- ZtToastModule&#45;&gt;ZtToastComponent  -->
<g id="edge18" class="edge">
<title>ZtToastModule&#45;&gt;ZtToastComponent </title>
<path fill="none" stroke="black" stroke-dasharray="5,2" d="M1462,-187.11C1462,-187.11 1462,-205.99 1462,-205.99"/>
<polygon fill="black" stroke="black" points="1458.5,-205.99 1462,-215.99 1465.5,-205.99 1458.5,-205.99"/>
</g>
</g>
</svg>
